<svg xmlns="http://www.w3.org/2000/svg" viewBox="0 0 64 64">
  <defs>
    <radialGradient id="g" cx="50%" cy="40%" r="60%">
      <stop offset="0%" stop-color="#ffd6ec"/>
      <stop offset="100%" stop-color="#e83a8d"/>
    </radialGradient>
  </defs>
  <circle cx="32" cy="32" r="30" fill="url(#g)"/>
  <g fill="#fff" opacity="0.95">
    <path d="M32 14c2 4 6 6 10 6-4 0-8 2-10 6-2-4-6-6-10-6 4 0 8-2 10-6z"/>
    <path d="M32 30c2 4 6 6 10 6-4 0-8 2-10 6-2-4-6-6-10-6 4 0 8-2 10-6z"/>
    <circle cx="32" cy="32" r="3" fill="#e83a8d"/>
  </g>
</svg>
